<mxfile host="app.diagrams.net" modified="2023-05-22T13:46:45.528Z" agent="Mozilla/5.0 (Windows NT 10.0; Win64; x64) AppleWebKit/537.36 (KHTML, like Gecko) Chrome/113.0.0.0 Safari/537.36 Edg/113.0.1774.50" version="21.3.2" etag="QCeOj21-tNmvzXJX85ay" type="github">
  <diagram name="PÃ¡gina-1" id="l-YivkmQO4lAX6WgvpOF">
    <mxGraphModel>
      <root>
        <mxCell id="0" />
        <mxCell id="1" parent="0" />
      </root>
    </mxGraphModel>
  </diagram>
</mxfile>
